<svg width="688" height="605" viewBox="0 0 688 605" fill="none" xmlns="http://www.w3.org/2000/svg">
<g clip-path="url(#clip0_54_106)">
<rect width="688" height="605" fill="#CC3733"/>
<path d="M563.361 57.3701C666.787 136.966 493.55 193.761 572.436 447.132C651.321 700.503 461.579 440.026 206.974 548.651C-47.6314 657.277 99.4858 294.553 197.899 158.889C296.313 23.2258 459.936 -22.226 563.361 57.3701Z" fill="white"/>
<path d="M517.57 115.113C606.591 183.624 463.6 224.075 537.7 433.612C611.801 643.149 444.8 424.025 235.455 504.01C26.1099 583.994 137.42 292.902 215.324 185.511C293.228 78.1202 428.548 46.602 517.57 115.113Z" fill="black"/>
<path d="M215.922 282.522C239.637 278.878 214.625 345.212 219.925 381.8C225.224 418.388 335.732 450.065 235.633 457.508C211.919 461.152 157.46 435.853 154.294 396.141C144.837 350.406 192.208 286.166 215.922 282.522Z" fill="white"/>
<path d="M305.61 407.117C265.855 402.945 234.452 391.211 235.472 380.908C236.491 370.605 269.545 365.635 309.301 369.807C349.057 373.979 371.209 383.545 370.19 393.848C369.171 404.151 345.366 411.289 305.61 407.117Z" fill="white"/>
<path d="M292.512 347.896C284.297 384.812 277.54 415.997 263.691 412.727C249.842 409.457 245.275 376.881 253.491 339.965C261.707 303.05 303.718 275.859 317.567 279.129C331.417 282.399 300.728 310.981 292.512 347.896Z" fill="white"/>
<path d="M439.757 386.233C427.491 417.629 422.114 353.927 389.985 340.611C357.855 327.294 311.14 369.405 323.405 338.009C335.671 306.612 397.472 225.889 429.601 239.206C461.731 252.523 452.023 354.836 439.757 386.233Z" fill="white"/>
<ellipse cx="31.3395" cy="20.236" rx="31.3395" ry="20.236" transform="matrix(-0.406174 0.912762 -0.905184 -0.427332 429.163 275.056)" fill="black"/>
<path d="M511.353 411.58C500.424 435.276 481.161 449.395 468.327 443.116C455.493 436.836 453.948 412.536 464.877 388.84C475.805 365.144 467.859 316.586 480.693 322.866C493.527 329.145 522.281 387.884 511.353 411.58Z" fill="white"/>
<path d="M484.79 276.362L482.971 289.89L497.214 286.284L488.338 293.899L501.682 300.633L490.412 301.9L496.488 313.927L485.723 309.465L483.616 321.088L478.151 311.1L467.983 319.382L470.693 308.009L455.559 309.459L466.331 301.427L451.091 295.111L463.853 294.462L456.284 281.817L469.237 289.553L469.156 274.655L477.004 287.417L484.79 276.362Z" fill="#CC3733"/>
<path d="M281.789 151.509C289.392 171.035 271.21 170.154 252.252 177.985C233.295 185.815 220.742 199.391 213.139 179.866C205.537 160.34 202.772 107.42 221.729 99.5894C240.687 91.759 274.187 131.983 281.789 151.509Z" fill="black"/>
<path d="M367.715 175.756C365.866 176.177 359.599 171.427 355.116 158.348C352.681 146.988 357.365 149.258 360.78 145.751C362.629 145.331 367.193 136.575 369.628 147.935C371.514 159.88 371.054 173.124 367.715 175.756Z" fill="black"/>
<path d="M462.631 162.658C454.165 164.583 429.458 161.418 418.026 143.964C414.563 127.805 433.857 128.162 451.251 120.323C459.717 118.398 485.591 101.536 489.054 117.695C489.708 135.147 479.128 156.243 462.631 162.658Z" fill="white"/>
<path d="M457.759 145.945C455.91 146.365 449.643 141.616 445.16 128.537C442.725 117.177 447.409 119.446 450.824 115.94C452.673 115.519 457.237 106.763 459.672 118.124C461.558 130.069 461.098 143.313 457.759 145.945Z" fill="black"/>
<path d="M350.076 195.781C341.61 197.706 316.904 194.542 305.472 177.088C302.008 160.929 321.303 161.285 338.697 153.446C347.163 151.521 373.036 134.66 376.499 150.819C377.153 168.271 366.574 189.366 350.076 195.781Z" fill="white"/>
<path d="M345.204 179.068C343.355 179.488 337.088 174.738 332.605 161.66C330.17 150.299 334.854 152.569 338.269 149.062C340.118 148.642 344.682 139.886 347.117 151.246C349.003 163.192 348.543 176.436 345.204 179.068Z" fill="black"/>
<path d="M408.347 100.66C414.253 120.798 396.217 118.275 376.665 124.358C357.113 130.442 343.449 142.829 337.543 122.691C331.636 102.552 333.398 49.5867 352.95 43.503C372.502 37.4193 402.44 80.5211 408.347 100.66Z" fill="black"/>
</g>
<defs>
<clipPath id="clip0_54_106">
<rect width="688" height="605" fill="white"/>
</clipPath>
</defs>
</svg>
